<svg width="428" height="292" viewBox="0 0 428 292" fill="none" xmlns="http://www.w3.org/2000/svg">
<mask id="mask0_34_109" style="mask-type:alpha" maskUnits="userSpaceOnUse" x="0" y="0" width="428" height="292">
<rect width="428" height="292" fill="white"/>
</mask>
<g mask="url(#mask0_34_109)">
<rect width="428" height="292" fill="white"/>
<rect width="428" height="292" fill="url(#paint0_linear_34_109)"/>
<path fill-rule="evenodd" clip-rule="evenodd" d="M59.0025 121.037C59.0025 121.037 48.2526 97.0135 18.5268 99.1323C-11.199 101.282 -18.1475 133.033 -18.1475 133.033C-18.1475 133.033 -41.6415 136.523 -50.9892 158.148C-60.3369 179.772 -60.3369 216.322 -50.9892 227.29C-41.6415 238.227 -20.5467 232.649 -20.5467 232.649C-20.5467 232.649 -6.93018 251.563 24.9768 241.436C24.9768 241.436 41.6469 248.291 59.0025 239.909C76.3582 231.559 78.477 223.021 78.477 223.021C78.477 223.021 96.6428 222.211 102.251 204.575C107.86 186.97 104.651 129.824 59.0025 121.037Z" fill="#DEDEDE"/>
<path fill-rule="evenodd" clip-rule="evenodd" d="M46.2896 215.356L40.2136 211.087L27.376 220.715L25.1326 172.855H14.0088L13.1363 191.8L5.68928 186.253L-0.355591 190.522L12.5131 205.073L11.4849 227.446L8.89867 225.514L2.8538 229.783L10.9552 238.912L8.46244 292.412H30.7101L28.0615 235.952L46.2896 215.356Z" fill="#D9D9D9"/>
<path fill-rule="evenodd" clip-rule="evenodd" d="M347.304 108.834C347.304 108.834 363.02 104.086 374.133 112.178C385.21 120.234 385.21 135.339 385.21 135.339C385.21 135.339 396.934 132.858 405.566 140.878C414.197 148.898 416.031 162.133 413.55 171.987C413.55 171.987 415.6 199.464 386.685 201.765C386.685 201.765 377.801 215.935 351.943 217.842C326.049 219.748 321.122 195.795 321.122 195.795C321.122 195.795 294.94 182.776 299.543 149.797C304.182 116.854 331.587 107.899 347.304 108.834Z" fill="#E9E9E9"/>
<path fill-rule="evenodd" clip-rule="evenodd" d="M368.762 65.5186C368.762 65.5186 379.227 51.3486 400.195 54.4415C421.126 57.5345 424.507 76.0201 424.507 76.0201C424.507 76.0201 441.158 79.4008 447.632 95.4049C454.105 111.445 443.927 129.319 431.304 133.024C431.304 133.024 429.757 148.812 414.976 156.005C400.195 163.198 384.155 159.817 378.904 153.343C378.904 153.343 361.029 167.154 340.997 152.444C323.015 139.174 331.395 121.911 331.395 121.911C331.395 121.911 313.197 100.692 330.388 76.6315C345.313 55.6643 368.762 65.5186 368.762 65.5186Z" fill="#F5F5F5"/>
<path fill-rule="evenodd" clip-rule="evenodd" d="M415.766 200.579L408.789 195.652L389.044 210.181L387.498 176.77L400.157 162.457L393.18 157.529L386.814 162.277L386.419 154.005H373.616L372.573 175.871L364.013 169.47L357 174.397L371.853 191.192L367.178 292H392.856L389.907 228.307L415.766 200.579Z" fill="#DFDFDF"/>
<path fill-rule="evenodd" clip-rule="evenodd" d="M424.052 123.939C424.052 123.939 432.36 109.769 445.918 112.538C459.477 115.307 464.08 123.327 465.015 128.254C465.015 128.254 483.213 132.031 486.27 154.005C489.363 176.015 478.897 181.23 478.897 181.23C478.897 181.23 486.594 194.788 472.424 208.958C458.254 223.164 439.445 212.663 439.445 212.663C439.445 212.663 418.693 223.452 400.1 213.921C381.506 204.355 383.592 188.926 383.592 188.926C383.592 188.926 374.205 179.144 376.291 165.01C379.06 146.129 392.295 141.813 392.295 141.813C392.295 141.813 389.994 130.736 401.394 123.975C412.795 117.177 424.052 123.939 424.052 123.939Z" fill="#E9E9E9"/>
<path d="M60 244.5C48.5 260.5 48.041 272.324 46 292H58C50.5 273 49.2188 259.5 60 244.5Z" fill="#B6B6B6"/>
<path d="M71 255C61.9643 267.463 61.6036 276.673 60 292H69.4286C63.5357 277.2 62.529 266.684 71 255Z" fill="#B6B6B6"/>
<path d="M82 267C75.4286 275.421 75.1663 281.644 74 292H80.8571C76.5714 282 75.8393 274.895 82 267Z" fill="#B6B6B6"/>
<path d="M362 262C369.393 272.105 369.688 279.573 371 292H363.286C368.107 280 368.931 271.474 362 262Z" fill="#878787"/>
<path d="M355 268C360.75 276.084 360.98 282.058 362 292H356C359.75 282.4 360.391 275.579 355 268Z" fill="#878787"/>
<path d="M348 276C352.107 281.389 352.271 285.372 353 292H348.714C351.393 285.6 351.85 281.053 348 276Z" fill="#878787"/>
<path d="M303.404 251C315.798 266.944 303.404 278.333 305.657 292H296C301.151 270.361 311.291 269.222 303.404 251Z" fill="#878787"/>
<path d="M293.6 274C295.865 282.788 293.6 287.333 295 294H289C292.2 283.444 293.6 283.697 293.6 274Z" fill="#878787"/>
</g>
<rect width="428" height="292" fill="url(#paint1_linear_34_109)"/>
<defs>
<linearGradient id="paint0_linear_34_109" x1="186" y1="326" x2="214" y2="118.5" gradientUnits="userSpaceOnUse">
<stop stop-color="white"/>
<stop offset="0.930208" stop-color="white" stop-opacity="0"/>
</linearGradient>
<linearGradient id="paint1_linear_34_109" x1="214" y1="311" x2="214" y2="118.5" gradientUnits="userSpaceOnUse">
<stop offset="0.0450903" stop-color="white"/>
<stop offset="0.930208" stop-color="white" stop-opacity="0"/>
</linearGradient>
</defs>
</svg>
