<svg width="135" height="39" viewBox="0 0 135 39" fill="none" xmlns="http://www.w3.org/2000/svg">
<path d="M9.288 29.456C8.136 29.456 7.048 29.224 6.024 28.76C5.016 28.296 4.12 27.656 3.336 26.84C2.552 26.024 1.936 25.08 1.488 24.008C1.056 22.936 0.84 21.792 0.84 20.576C0.84 19.408 1.064 18.32 1.512 17.312C1.96 16.288 2.576 15.392 3.36 14.624C4.16 13.84 5.08 13.232 6.12 12.8C7.16 12.352 8.272 12.128 9.456 12.128C9.968 12.128 10.52 12.176 11.112 12.272C11.704 12.368 12.28 12.52 12.84 12.728C13.416 12.92 13.912 13.16 14.328 13.448C14.664 13.672 14.968 13.912 15.24 14.168C15.528 14.424 15.672 14.744 15.672 15.128C15.672 15.32 15.624 15.528 15.528 15.752C15.432 15.976 15.296 16.216 15.12 16.472C14.816 16.92 14.512 17.248 14.208 17.456C13.904 17.648 13.616 17.744 13.344 17.744C13.168 17.744 12.984 17.704 12.792 17.624C12.616 17.528 12.368 17.384 12.048 17.192C11.952 17.128 11.768 17.048 11.496 16.952C11.224 16.84 10.896 16.744 10.512 16.664C10.144 16.568 9.752 16.52 9.336 16.52C8.584 16.52 7.896 16.704 7.272 17.072C6.648 17.424 6.152 17.912 5.784 18.536C5.416 19.16 5.232 19.856 5.232 20.624C5.232 21.408 5.424 22.136 5.808 22.808C6.192 23.464 6.696 24 7.32 24.416C7.96 24.816 8.648 25.016 9.384 25.016C9.672 25.016 9.952 25.008 10.224 24.992C10.512 24.976 10.792 24.944 11.064 24.896C11.336 24.848 11.576 24.784 11.784 24.704V22.64H10.008C9.72 22.64 9.448 22.616 9.192 22.568C8.936 22.504 8.728 22.344 8.568 22.088C8.408 21.832 8.328 21.392 8.328 20.768C8.328 20.144 8.416 19.704 8.592 19.448C8.768 19.192 8.992 19.04 9.264 18.992C9.536 18.944 9.808 18.92 10.08 18.92H14.28C14.92 18.936 15.368 19.056 15.624 19.28C15.88 19.488 16.032 19.744 16.08 20.048C16.144 20.352 16.176 20.672 16.176 21.008V25.928C16.176 26.376 15.984 26.84 15.6 27.32C15.216 27.784 14.696 28.184 14.04 28.52C13.64 28.728 13.192 28.896 12.696 29.024C12.2 29.168 11.664 29.272 11.088 29.336C10.528 29.416 9.928 29.456 9.288 29.456ZM19.794 29.192C19.074 29.192 18.562 29.088 18.258 28.88C17.954 28.656 17.77 28.376 17.706 28.04C17.642 27.688 17.61 27.336 17.61 26.984V14.6C17.61 14.248 17.642 13.904 17.706 13.568C17.77 13.232 17.954 12.96 18.258 12.752C18.562 12.528 19.082 12.416 19.818 12.416H24.642C25.25 12.416 25.906 12.544 26.61 12.8C27.314 13.04 27.978 13.416 28.602 13.928C29.226 14.44 29.738 15.08 30.138 15.848C30.538 16.616 30.738 17.528 30.738 18.584C30.738 19.32 30.626 20.008 30.402 20.648C30.194 21.288 29.874 21.872 29.442 22.4C29.026 22.912 28.514 23.368 27.906 23.768C27.314 24.152 26.634 24.456 25.866 24.68H22.002V27.008C22.002 27.36 21.97 27.704 21.906 28.04C21.842 28.376 21.658 28.656 21.354 28.88C21.05 29.088 20.53 29.192 19.794 29.192ZM29.85 28.616C29.13 29.16 28.562 29.376 28.146 29.264C27.73 29.168 27.282 28.8 26.802 28.16L22.386 22.16L27.378 21.536L30.354 25.544C30.674 26.008 30.874 26.4 30.954 26.72C31.05 27.04 31.01 27.344 30.834 27.632C30.658 27.92 30.33 28.248 29.85 28.616ZM22.002 20.312H24.642C24.786 20.312 24.954 20.288 25.146 20.24C25.354 20.176 25.546 20.08 25.722 19.952C25.898 19.808 26.042 19.624 26.154 19.4C26.282 19.176 26.346 18.896 26.346 18.56C26.346 18.224 26.266 17.928 26.106 17.672C25.946 17.4 25.73 17.192 25.458 17.048C25.202 16.888 24.914 16.808 24.594 16.808H22.002V20.312ZM33.8704 29.216C33.1504 29.216 32.6384 29.112 32.3344 28.904C32.0304 28.68 31.8464 28.4 31.7824 28.064C31.7184 27.712 31.6864 27.36 31.6864 27.008V14.6C31.6864 13.768 31.8464 13.2 32.1664 12.896C32.5024 12.576 33.0944 12.416 33.9424 12.416H42.7264C43.0944 12.416 43.4384 12.448 43.7584 12.512C44.0944 12.576 44.3664 12.76 44.5744 13.064C44.7984 13.368 44.9104 13.888 44.9104 14.624C44.9104 15.344 44.7984 15.856 44.5744 16.16C44.3664 16.464 44.0944 16.648 43.7584 16.712C43.4224 16.776 43.0704 16.808 42.7024 16.808H36.0784V18.944H40.5184C40.8864 18.944 41.2144 18.976 41.5024 19.04C41.7904 19.088 42.0224 19.24 42.1984 19.496C42.3744 19.752 42.4624 20.2 42.4624 20.84C42.4624 21.448 42.3744 21.888 42.1984 22.16C42.0224 22.416 41.7824 22.568 41.4784 22.616C41.1744 22.664 40.8384 22.688 40.4704 22.688H36.0784V24.824H42.7264C43.0944 24.824 43.4384 24.856 43.7584 24.92C44.0944 24.984 44.3664 25.168 44.5744 25.472C44.7984 25.776 44.9104 26.296 44.9104 27.032C44.9104 27.752 44.7984 28.264 44.5744 28.568C44.3664 28.872 44.0944 29.056 43.7584 29.12C43.4224 29.184 43.0704 29.216 42.7024 29.216H33.8704ZM47.8513 29.216C47.1313 29.216 46.6193 29.112 46.3153 28.904C46.0113 28.68 45.8273 28.4 45.7633 28.064C45.6993 27.712 45.6673 27.36 45.6673 27.008V14.6C45.6673 13.768 45.8273 13.2 46.1473 12.896C46.4833 12.576 47.0753 12.416 47.9233 12.416H56.7073C57.0753 12.416 57.4193 12.448 57.7393 12.512C58.0753 12.576 58.3473 12.76 58.5553 13.064C58.7793 13.368 58.8913 13.888 58.8913 14.624C58.8913 15.344 58.7793 15.856 58.5553 16.16C58.3473 16.464 58.0753 16.648 57.7393 16.712C57.4033 16.776 57.0513 16.808 56.6833 16.808H50.0593V18.944H54.4993C54.8673 18.944 55.1953 18.976 55.4833 19.04C55.7713 19.088 56.0033 19.24 56.1793 19.496C56.3553 19.752 56.4433 20.2 56.4433 20.84C56.4433 21.448 56.3553 21.888 56.1793 22.16C56.0033 22.416 55.7633 22.568 55.4593 22.616C55.1553 22.664 54.8193 22.688 54.4513 22.688H50.0593V24.824H56.7073C57.0753 24.824 57.4193 24.856 57.7393 24.92C58.0753 24.984 58.3473 25.168 58.5553 25.472C58.7793 25.776 58.8913 26.296 58.8913 27.032C58.8913 27.752 58.7793 28.264 58.5553 28.568C58.3473 28.872 58.0753 29.056 57.7393 29.12C57.4033 29.184 57.0513 29.216 56.6833 29.216H47.8513ZM61.5683 29.216C60.8643 29.216 60.3603 29.112 60.0563 28.904C59.7523 28.68 59.5683 28.4 59.5043 28.064C59.4403 27.728 59.4083 27.376 59.4083 27.008V14.552C59.4083 14.2 59.4403 13.864 59.5043 13.544C59.5683 13.224 59.7523 12.96 60.0563 12.752C60.3763 12.544 60.8963 12.44 61.6163 12.44C62.3203 12.44 62.8003 12.528 63.0563 12.704C63.3123 12.88 63.5443 13.104 63.7523 13.376L69.7523 21.44V14.552C69.7523 14.2 69.7843 13.864 69.8483 13.544C69.9283 13.224 70.1203 12.96 70.4243 12.752C70.7283 12.544 71.2403 12.44 71.9603 12.44C72.6963 12.44 73.2083 12.552 73.4963 12.776C73.8003 12.984 73.9843 13.256 74.0483 13.592C74.1123 13.928 74.1443 14.28 74.1443 14.648V27.032C74.1443 27.384 74.1123 27.728 74.0483 28.064C73.9843 28.4 73.8003 28.68 73.4963 28.904C73.1923 29.112 72.6723 29.216 71.9363 29.216C71.3923 29.216 70.9763 29.168 70.6883 29.072C70.4163 28.992 70.1843 28.824 69.9923 28.568L63.7763 20.36V27.032C63.7763 27.384 63.7443 27.728 63.6803 28.064C63.6163 28.4 63.4323 28.68 63.1283 28.904C62.8243 29.112 62.3043 29.216 61.5683 29.216ZM94.9984 12.32V29H92.2384V16.496L87.4144 29H85.0144L80.1664 16.496V29H77.4304V12.32H80.7424L86.2624 25.64L91.6864 12.32H94.9984ZM97.4257 11.936C97.4257 11.472 97.5857 11.088 97.9057 10.784C98.2257 10.48 98.6497 10.328 99.1777 10.328C99.7057 10.328 100.13 10.48 100.45 10.784C100.786 11.088 100.954 11.472 100.954 11.936C100.954 12.4 100.786 12.776 100.45 13.064C100.13 13.352 99.7057 13.496 99.1777 13.496C98.6497 13.496 98.2257 13.352 97.9057 13.064C97.5857 12.776 97.4257 12.4 97.4257 11.936ZM100.546 15.776V29H97.8097V15.776H100.546ZM106.113 11.24V29H103.377V11.24H106.113ZM121.231 21.752C121.231 22.2 121.199 22.592 121.135 22.928H110.959C111.007 24.288 111.383 25.296 112.087 25.952C112.791 26.608 113.663 26.936 114.703 26.936C115.615 26.936 116.383 26.704 117.007 26.24C117.647 25.776 118.039 25.16 118.183 24.392H121.111C120.935 25.32 120.567 26.144 120.007 26.864C119.447 27.584 118.719 28.152 117.823 28.568C116.927 28.968 115.927 29.168 114.823 29.168C113.543 29.168 112.407 28.896 111.415 28.352C110.439 27.808 109.671 27.024 109.111 26C108.551 24.976 108.271 23.768 108.271 22.376C108.271 21 108.551 19.8 109.111 18.776C109.671 17.752 110.439 16.968 111.415 16.424C112.407 15.88 113.543 15.608 114.823 15.608C116.119 15.608 117.247 15.88 118.207 16.424C119.183 16.952 119.927 17.688 120.439 18.632C120.967 19.56 121.231 20.6 121.231 21.752ZM118.471 21.68C118.503 20.816 118.351 20.096 118.015 19.52C117.695 18.928 117.247 18.496 116.671 18.224C116.111 17.936 115.495 17.792 114.823 17.792C113.751 17.792 112.855 18.12 112.135 18.776C111.415 19.432 111.023 20.4 110.959 21.68H118.471ZM127.737 15.608C129.289 15.608 130.529 16.008 131.457 16.808C132.401 17.592 132.977 18.648 133.185 19.976H130.593C130.481 19.256 130.169 18.68 129.657 18.248C129.161 17.8 128.497 17.576 127.665 17.576C126.977 17.576 126.441 17.744 126.057 18.08C125.689 18.4 125.505 18.84 125.505 19.4C125.505 19.816 125.641 20.152 125.913 20.408C126.185 20.664 126.521 20.864 126.921 21.008C127.337 21.152 127.921 21.312 128.673 21.488C129.665 21.712 130.465 21.944 131.073 22.184C131.697 22.424 132.225 22.808 132.657 23.336C133.105 23.848 133.329 24.552 133.329 25.448C133.329 26.552 132.905 27.448 132.057 28.136C131.225 28.824 130.097 29.168 128.673 29.168C127.025 29.168 125.689 28.784 124.665 28.016C123.657 27.248 123.049 26.176 122.841 24.8H125.505C125.585 25.52 125.905 26.104 126.465 26.552C127.025 27 127.761 27.224 128.673 27.224C129.329 27.224 129.841 27.056 130.209 26.72C130.593 26.368 130.785 25.928 130.785 25.4C130.785 24.936 130.641 24.568 130.353 24.296C130.065 24.024 129.705 23.816 129.273 23.672C128.841 23.512 128.249 23.352 127.497 23.192C126.537 22.968 125.753 22.744 125.145 22.52C124.553 22.296 124.041 21.936 123.609 21.44C123.193 20.928 122.985 20.24 122.985 19.376C122.985 18.256 123.401 17.352 124.233 16.664C125.081 15.96 126.249 15.608 127.737 15.608Z" fill="white"/>
<path fill-rule="evenodd" clip-rule="evenodd" d="M112.96 2.18669C112.564 2.91892 112.795 4.06878 112.795 4.06878C115.452 18.2035 104.04 18.6668 104.04 18.6668C104.04 18.6668 98.1872 8.85889 111.474 3.35389C111.474 3.35389 112.564 2.91892 112.96 2.18669Z" fill="white"/>
</svg>
