<svg width="396" height="37" viewBox="0 0 396 37" fill="none" xmlns="http://www.w3.org/2000/svg">
<path fill-rule="evenodd" clip-rule="evenodd" d="M98.5 18.5286C99.5663 18.5286 100.72 17.5478 100.72 17.5478C115.021 5.70831 122.5 18.5286 122.5 18.5286C122.5 18.5286 115.021 31.3488 100.72 19.5093C100.72 19.5093 99.5663 18.5286 98.5 18.5286Z" fill="#4EEB67"/>
<path fill-rule="evenodd" clip-rule="evenodd" d="M82.5 18.5286C83.0332 18.5286 83.6102 18.0382 83.6102 18.0382C90.7605 12.1184 94.5 18.5286 94.5 18.5286C94.5 18.5286 90.7605 24.9387 83.6102 19.019C83.6102 19.019 83.0332 18.5286 82.5 18.5286Z" fill="#4EEB67" fill-opacity="0.5"/>
<path d="M140.08 26.9846C138.928 26.9846 137.84 26.7526 136.816 26.2886C135.808 25.8246 134.912 25.1846 134.128 24.3686C133.344 23.5526 132.728 22.6086 132.28 21.5366C131.848 20.4646 131.632 19.3206 131.632 18.1046C131.632 16.9366 131.856 15.8486 132.304 14.8406C132.752 13.8166 133.368 12.9206 134.152 12.1526C134.952 11.3686 135.872 10.7606 136.912 10.3286C137.952 9.88056 139.064 9.65656 140.248 9.65656C140.76 9.65656 141.312 9.70456 141.904 9.80056C142.496 9.89656 143.072 10.0486 143.632 10.2566C144.208 10.4486 144.704 10.6886 145.12 10.9766C145.456 11.2006 145.76 11.4406 146.032 11.6966C146.32 11.9526 146.464 12.2726 146.464 12.6566C146.464 12.8486 146.416 13.0566 146.32 13.2806C146.224 13.5046 146.088 13.7446 145.912 14.0006C145.608 14.4486 145.304 14.7766 145 14.9846C144.696 15.1766 144.408 15.2726 144.136 15.2726C143.96 15.2726 143.776 15.2326 143.584 15.1526C143.408 15.0566 143.16 14.9126 142.84 14.7206C142.744 14.6566 142.56 14.5766 142.288 14.4806C142.016 14.3686 141.688 14.2726 141.304 14.1926C140.936 14.0966 140.544 14.0486 140.128 14.0486C139.376 14.0486 138.688 14.2326 138.064 14.6006C137.44 14.9526 136.944 15.4406 136.576 16.0646C136.208 16.6886 136.024 17.3846 136.024 18.1526C136.024 18.9366 136.216 19.6646 136.6 20.3366C136.984 20.9926 137.488 21.5286 138.112 21.9446C138.752 22.3446 139.44 22.5446 140.176 22.5446C140.464 22.5446 140.744 22.5366 141.016 22.5206C141.304 22.5046 141.584 22.4726 141.856 22.4246C142.128 22.3766 142.368 22.3126 142.576 22.2326V20.1686H140.8C140.512 20.1686 140.24 20.1446 139.984 20.0966C139.728 20.0326 139.52 19.8726 139.36 19.6166C139.2 19.3606 139.12 18.9206 139.12 18.2966C139.12 17.6726 139.208 17.2326 139.384 16.9766C139.56 16.7206 139.784 16.5686 140.056 16.5206C140.328 16.4726 140.6 16.4486 140.872 16.4486H145.072C145.712 16.4646 146.16 16.5846 146.416 16.8086C146.672 17.0166 146.824 17.2726 146.872 17.5766C146.936 17.8806 146.968 18.2006 146.968 18.5366V23.4566C146.968 23.9046 146.776 24.3686 146.392 24.8486C146.008 25.3126 145.488 25.7126 144.832 26.0486C144.432 26.2566 143.984 26.4246 143.488 26.5526C142.992 26.6966 142.456 26.8006 141.88 26.8646C141.32 26.9446 140.72 26.9846 140.08 26.9846ZM150.586 26.7206C149.866 26.7206 149.354 26.6166 149.05 26.4086C148.746 26.1846 148.562 25.9046 148.498 25.5686C148.434 25.2166 148.402 24.8646 148.402 24.5126V12.1286C148.402 11.7766 148.434 11.4326 148.498 11.0966C148.562 10.7606 148.746 10.4886 149.05 10.2806C149.354 10.0566 149.874 9.94456 150.61 9.94456H155.434C156.042 9.94456 156.698 10.0726 157.402 10.3286C158.106 10.5686 158.77 10.9446 159.394 11.4566C160.018 11.9686 160.53 12.6086 160.93 13.3766C161.33 14.1446 161.53 15.0566 161.53 16.1126C161.53 16.8486 161.418 17.5366 161.194 18.1766C160.986 18.8166 160.666 19.4006 160.234 19.9286C159.818 20.4406 159.306 20.8966 158.698 21.2966C158.106 21.6806 157.426 21.9846 156.658 22.2086H152.794V24.5366C152.794 24.8886 152.762 25.2326 152.698 25.5686C152.634 25.9046 152.45 26.1846 152.146 26.4086C151.842 26.6166 151.322 26.7206 150.586 26.7206ZM160.642 26.1446C159.922 26.6886 159.354 26.9046 158.938 26.7926C158.522 26.6966 158.074 26.3286 157.594 25.6886L153.178 19.6886L158.17 19.0646L161.146 23.0726C161.466 23.5366 161.666 23.9286 161.746 24.2486C161.842 24.5686 161.802 24.8726 161.626 25.1606C161.45 25.4486 161.122 25.7766 160.642 26.1446ZM152.794 17.8406H155.434C155.578 17.8406 155.746 17.8166 155.938 17.7686C156.146 17.7046 156.338 17.6086 156.514 17.4806C156.69 17.3366 156.834 17.1526 156.946 16.9286C157.074 16.7046 157.138 16.4246 157.138 16.0886C157.138 15.7526 157.058 15.4566 156.898 15.2006C156.738 14.9286 156.522 14.7206 156.25 14.5766C155.994 14.4166 155.706 14.3366 155.386 14.3366H152.794V17.8406ZM164.662 26.7446C163.942 26.7446 163.43 26.6406 163.126 26.4326C162.822 26.2086 162.638 25.9286 162.574 25.5926C162.51 25.2406 162.478 24.8886 162.478 24.5366V12.1286C162.478 11.2966 162.638 10.7286 162.958 10.4246C163.294 10.1046 163.886 9.94456 164.734 9.94456H173.518C173.886 9.94456 174.23 9.97656 174.55 10.0406C174.886 10.1046 175.158 10.2886 175.366 10.5926C175.59 10.8966 175.702 11.4166 175.702 12.1526C175.702 12.8726 175.59 13.3846 175.366 13.6886C175.158 13.9926 174.886 14.1766 174.55 14.2406C174.214 14.3046 173.862 14.3366 173.494 14.3366H166.87V16.4726H171.31C171.678 16.4726 172.006 16.5046 172.294 16.5686C172.582 16.6166 172.814 16.7686 172.99 17.0246C173.166 17.2806 173.254 17.7286 173.254 18.3686C173.254 18.9766 173.166 19.4166 172.99 19.6886C172.814 19.9446 172.574 20.0966 172.27 20.1446C171.966 20.1926 171.63 20.2166 171.262 20.2166H166.87V22.3526H173.518C173.886 22.3526 174.23 22.3846 174.55 22.4486C174.886 22.5126 175.158 22.6966 175.366 23.0006C175.59 23.3046 175.702 23.8246 175.702 24.5606C175.702 25.2806 175.59 25.7926 175.366 26.0966C175.158 26.4006 174.886 26.5846 174.55 26.6486C174.214 26.7126 173.862 26.7446 173.494 26.7446H164.662ZM178.643 26.7446C177.923 26.7446 177.411 26.6406 177.107 26.4326C176.803 26.2086 176.619 25.9286 176.555 25.5926C176.491 25.2406 176.459 24.8886 176.459 24.5366V12.1286C176.459 11.2966 176.619 10.7286 176.939 10.4246C177.275 10.1046 177.867 9.94456 178.715 9.94456H187.499C187.867 9.94456 188.211 9.97656 188.531 10.0406C188.867 10.1046 189.139 10.2886 189.347 10.5926C189.571 10.8966 189.683 11.4166 189.683 12.1526C189.683 12.8726 189.571 13.3846 189.347 13.6886C189.139 13.9926 188.867 14.1766 188.531 14.2406C188.195 14.3046 187.843 14.3366 187.475 14.3366H180.851V16.4726H185.291C185.659 16.4726 185.987 16.5046 186.275 16.5686C186.563 16.6166 186.795 16.7686 186.971 17.0246C187.147 17.2806 187.235 17.7286 187.235 18.3686C187.235 18.9766 187.147 19.4166 186.971 19.6886C186.795 19.9446 186.555 20.0966 186.251 20.1446C185.947 20.1926 185.611 20.2166 185.243 20.2166H180.851V22.3526H187.499C187.867 22.3526 188.211 22.3846 188.531 22.4486C188.867 22.5126 189.139 22.6966 189.347 23.0006C189.571 23.3046 189.683 23.8246 189.683 24.5606C189.683 25.2806 189.571 25.7926 189.347 26.0966C189.139 26.4006 188.867 26.5846 188.531 26.6486C188.195 26.7126 187.843 26.7446 187.475 26.7446H178.643ZM192.36 26.7446C191.656 26.7446 191.152 26.6406 190.848 26.4326C190.544 26.2086 190.36 25.9286 190.296 25.5926C190.232 25.2566 190.2 24.9046 190.2 24.5366V12.0806C190.2 11.7286 190.232 11.3926 190.296 11.0726C190.36 10.7526 190.544 10.4886 190.848 10.2806C191.168 10.0726 191.688 9.96856 192.408 9.96856C193.112 9.96856 193.592 10.0566 193.848 10.2326C194.104 10.4086 194.336 10.6326 194.544 10.9046L200.544 18.9686V12.0806C200.544 11.7286 200.576 11.3926 200.64 11.0726C200.72 10.7526 200.912 10.4886 201.216 10.2806C201.52 10.0726 202.032 9.96856 202.752 9.96856C203.488 9.96856 204 10.0806 204.288 10.3046C204.592 10.5126 204.776 10.7846 204.84 11.1206C204.904 11.4566 204.936 11.8086 204.936 12.1766V24.5606C204.936 24.9126 204.904 25.2566 204.84 25.5926C204.776 25.9286 204.592 26.2086 204.288 26.4326C203.984 26.6406 203.464 26.7446 202.728 26.7446C202.184 26.7446 201.768 26.6966 201.48 26.6006C201.208 26.5206 200.976 26.3526 200.784 26.0966L194.568 17.8886V24.5606C194.568 24.9126 194.536 25.2566 194.472 25.5926C194.408 25.9286 194.224 26.2086 193.92 26.4326C193.616 26.6406 193.096 26.7446 192.36 26.7446ZM225.79 9.84856V26.5286H223.03V14.0246L218.206 26.5286H215.806L210.958 14.0246V26.5286H208.222V9.84856H211.534L217.054 23.1686L222.478 9.84856H225.79ZM228.217 9.46456C228.217 9.00056 228.377 8.61656 228.697 8.31256C229.017 8.00856 229.441 7.85656 229.969 7.85656C230.497 7.85656 230.921 8.00856 231.241 8.31256C231.577 8.61656 231.745 9.00056 231.745 9.46456C231.745 9.92856 231.577 10.3046 231.241 10.5926C230.921 10.8806 230.497 11.0246 229.969 11.0246C229.441 11.0246 229.017 10.8806 228.697 10.5926C228.377 10.3046 228.217 9.92856 228.217 9.46456ZM231.337 13.3046V26.5286H228.601V13.3046H231.337ZM236.904 8.76856V26.5286H234.168V8.76856H236.904ZM252.023 19.2806C252.023 19.7286 251.991 20.1206 251.927 20.4566H241.751C241.799 21.8166 242.175 22.8246 242.879 23.4806C243.583 24.1366 244.455 24.4646 245.495 24.4646C246.407 24.4646 247.175 24.2326 247.799 23.7686C248.439 23.3046 248.831 22.6886 248.975 21.9206H251.903C251.727 22.8486 251.359 23.6726 250.799 24.3926C250.239 25.1126 249.511 25.6806 248.615 26.0966C247.719 26.4966 246.719 26.6966 245.615 26.6966C244.335 26.6966 243.199 26.4246 242.207 25.8806C241.231 25.3366 240.463 24.5526 239.903 23.5286C239.343 22.5046 239.063 21.2966 239.063 19.9046C239.063 18.5286 239.343 17.3286 239.903 16.3046C240.463 15.2806 241.231 14.4966 242.207 13.9526C243.199 13.4086 244.335 13.1366 245.615 13.1366C246.911 13.1366 248.039 13.4086 248.999 13.9526C249.975 14.4806 250.719 15.2166 251.231 16.1606C251.759 17.0886 252.023 18.1286 252.023 19.2806ZM249.263 19.2086C249.295 18.3446 249.143 17.6246 248.807 17.0486C248.487 16.4566 248.039 16.0246 247.463 15.7526C246.903 15.4646 246.287 15.3206 245.615 15.3206C244.543 15.3206 243.647 15.6486 242.927 16.3046C242.207 16.9606 241.815 17.9286 241.751 19.2086H249.263ZM258.529 13.1366C260.081 13.1366 261.321 13.5366 262.249 14.3366C263.193 15.1206 263.769 16.1766 263.977 17.5046H261.385C261.273 16.7846 260.961 16.2086 260.449 15.7766C259.953 15.3286 259.289 15.1046 258.457 15.1046C257.769 15.1046 257.233 15.2726 256.849 15.6086C256.481 15.9286 256.297 16.3686 256.297 16.9286C256.297 17.3446 256.433 17.6806 256.705 17.9366C256.977 18.1926 257.313 18.3926 257.713 18.5366C258.129 18.6806 258.713 18.8406 259.465 19.0166C260.457 19.2406 261.257 19.4726 261.865 19.7126C262.489 19.9526 263.017 20.3366 263.449 20.8646C263.897 21.3766 264.121 22.0806 264.121 22.9766C264.121 24.0806 263.697 24.9766 262.849 25.6646C262.017 26.3526 260.889 26.6966 259.465 26.6966C257.817 26.6966 256.481 26.3126 255.457 25.5446C254.449 24.7766 253.841 23.7046 253.633 22.3286H256.297C256.377 23.0486 256.697 23.6326 257.257 24.0806C257.817 24.5286 258.553 24.7526 259.465 24.7526C260.121 24.7526 260.633 24.5846 261.001 24.2486C261.385 23.8966 261.577 23.4566 261.577 22.9286C261.577 22.4646 261.433 22.0966 261.145 21.8246C260.857 21.5526 260.497 21.3446 260.065 21.2006C259.633 21.0406 259.041 20.8806 258.289 20.7206C257.329 20.4966 256.545 20.2726 255.937 20.0486C255.345 19.8246 254.833 19.4646 254.401 18.9686C253.985 18.4566 253.777 17.7686 253.777 16.9046C253.777 15.7846 254.193 14.8806 255.025 14.1926C255.873 13.4886 257.041 13.1366 258.529 13.1366Z" fill="#0BC05D"/>
<path fill-rule="evenodd" clip-rule="evenodd" d="M297.5 18.5286C296.434 18.5286 295.28 19.5093 295.28 19.5093C280.979 31.3488 273.5 18.5286 273.5 18.5286C273.5 18.5286 280.979 5.70831 295.28 17.5478C295.28 17.5478 296.434 18.5286 297.5 18.5286Z" fill="#4EEB67"/>
<path fill-rule="evenodd" clip-rule="evenodd" d="M313.5 18.5286C312.967 18.5286 312.39 19.019 312.39 19.019C305.24 24.9387 301.5 18.5286 301.5 18.5286C301.5 18.5286 305.24 12.1184 312.39 18.0382C312.39 18.0382 312.967 18.5286 313.5 18.5286Z" fill="#4EEB67" fill-opacity="0.5"/>
</svg>
