<svg width="364" height="111" viewBox="0 0 364 111" fill="none" xmlns="http://www.w3.org/2000/svg">
<mask id="mask0_201_373" style="mask-type:alpha" maskUnits="userSpaceOnUse" x="0" y="0" width="364" height="111">
<rect width="364" height="111" rx="16" fill="#51CC65"/>
</mask>
<g mask="url(#mask0_201_373)">
<rect width="364" height="111" rx="16" fill="#51CC65"/>
<rect x="-64" y="67.4019" width="249.43" height="113.262" transform="rotate(-45 -64 67.4019)" fill="#58D76D"/>
<rect x="-64" y="67.4019" width="249.43" height="113.262" transform="rotate(-45 -64 67.4019)" fill="url(#paint0_linear_201_373)" fill-opacity="0.2"/>
<rect x="-138" y="54.3733" width="249.43" height="113.262" transform="rotate(-45 -138 54.3733)" fill="url(#paint1_linear_201_373)"/>
<path fill-rule="evenodd" clip-rule="evenodd" d="M360.638 110.638C340.948 130.328 309.052 130.328 289.362 110.638C269.69 90.9659 269.672 59.0519 289.362 39.3618C309.034 19.6895 340.966 19.6895 360.638 39.3618C380.328 59.0519 380.31 90.9659 360.638 110.638ZM369.548 119.548C394.138 94.9574 394.156 55.0604 369.548 30.4523C344.957 5.86193 305.043 5.86193 280.452 30.4523C255.844 55.0604 255.862 94.9574 280.452 119.548C305.06 144.156 344.94 144.156 369.548 119.548Z" fill="#28DB42"/>
<path fill-rule="evenodd" clip-rule="evenodd" d="M289.362 110.638C309.052 130.328 340.948 130.328 360.638 110.638C380.31 90.9659 380.328 59.0519 360.638 39.3618L289.362 110.638Z" fill="#7EF790"/>
<path fill-rule="evenodd" clip-rule="evenodd" d="M289.362 110.638L360.638 39.3618C340.966 19.6895 309.034 19.6895 289.362 39.3618C269.672 59.0519 269.69 90.9659 289.362 110.638Z" fill="#49ED62"/>
<path d="M366.679 81.0405C369.139 78.5802 369.139 74.5912 366.679 72.1309C364.218 69.6706 360.23 69.6706 357.769 72.1309C355.309 74.5912 355.309 78.5802 357.769 81.0405C360.23 83.5008 364.218 83.5008 366.679 81.0405Z" fill="#BAFFC4"/>
<path d="M336.957 86.9565C339.417 84.4962 339.417 80.5072 336.957 78.0469C334.496 75.5866 330.507 75.5866 328.047 78.0469C325.587 80.5072 325.587 84.4962 328.047 86.9565C330.507 89.4168 334.496 89.4168 336.957 86.9565Z" fill="#BAFFC4"/>
<path d="M331.041 116.679C333.501 114.218 333.501 110.229 331.041 107.769C328.58 105.309 324.591 105.309 322.131 107.769C319.671 110.229 319.671 114.218 322.131 116.679C324.591 119.139 328.58 119.139 331.041 116.679Z" fill="#BAFFC4"/>
<path fill-rule="evenodd" clip-rule="evenodd" d="M305.31 94.6903L291.055 108.946C288.827 106.718 287.883 103.707 288.168 100.82C285.335 100.089 282.858 98.1472 281.504 95.2961C280.185 92.4451 280.31 89.2911 281.557 86.6539C279.151 84.9967 277.476 82.3238 277.191 79.1877C276.924 76.0693 278.118 73.1292 280.221 71.0978C278.492 68.7279 277.833 65.6452 278.652 62.5803C279.472 59.551 281.593 57.2167 284.248 56.0228C283.464 53.2074 283.891 50.0713 285.691 47.4875C287.419 45.0106 290.092 43.5495 292.89 43.2466C293.157 40.449 294.583 37.7761 297.06 36.012C299.608 34.1766 302.744 33.7133 305.559 34.4617C306.735 31.7889 309.052 29.6506 312.081 28.7953C315.11 27.94 318.211 28.5814 320.599 30.2564C322.612 28.1716 325.534 26.9243 328.671 27.1737C331.807 27.4232 334.497 29.0804 336.172 31.4681C338.792 30.1673 341.946 30.007 344.815 31.3078C347.684 32.6086 349.626 35.0854 350.392 37.9186C353.297 37.5801 356.308 38.5245 358.571 40.7162C358.696 40.841 358.821 40.9657 358.91 41.0904L344.672 55.3279L344.601 55.2566L344.672 55.3279L305.31 94.6903Z" fill="#91FFA2"/>
<path d="M314.558 96.9175L311.03 100.446L314.558 103.974L318.086 100.446L314.558 96.9175Z" fill="#6CEB7F"/>
<path d="M347.488 97.516V102.506H352.477V97.516H347.488Z" fill="#6CEB7F"/>
<path d="M350.303 61.1724L346.775 64.7006L350.303 68.2287L353.831 64.7006L350.303 61.1724Z" fill="#6CEB7F"/>
<path fill-rule="evenodd" clip-rule="evenodd" d="M313.168 86.8315C306.646 80.3097 306.646 69.7252 313.186 63.1856C319.708 56.6638 330.292 56.6638 336.814 63.1856L313.168 86.8315Z" fill="#70EB83"/>
<circle cx="196" cy="111" r="40" fill="url(#paint2_linear_201_373)"/>
</g>
<defs>
<linearGradient id="paint0_linear_201_373" x1="60.7148" y1="67.4019" x2="64.624" y2="119.797" gradientUnits="userSpaceOnUse">
<stop stop-color="white"/>
<stop offset="1" stop-color="white" stop-opacity="0"/>
</linearGradient>
<linearGradient id="paint1_linear_201_373" x1="-49.7012" y1="163.357" x2="11.1099" y2="149.215" gradientUnits="userSpaceOnUse">
<stop stop-color="#52CD66"/>
<stop offset="1" stop-color="#7DEA8F" stop-opacity="0.43"/>
</linearGradient>
<linearGradient id="paint2_linear_201_373" x1="226.5" y1="48" x2="196" y2="151" gradientUnits="userSpaceOnUse">
<stop stop-color="#6FE782"/>
<stop offset="1" stop-color="#6FE782" stop-opacity="0"/>
</linearGradient>
</defs>
</svg>
