<svg width="364" height="111" viewBox="0 0 364 111" fill="none" xmlns="http://www.w3.org/2000/svg">
<mask id="mask0_201_430" style="mask-type:alpha" maskUnits="userSpaceOnUse" x="0" y="0" width="364" height="111">
<rect width="364" height="111" rx="16" fill="#51CC65"/>
</mask>
<g mask="url(#mask0_201_430)">
<rect width="364" height="111" rx="16" fill="#51CC65"/>
<rect x="-64" y="67.4019" width="249.43" height="113.262" transform="rotate(-45 -64 67.4019)" fill="#58D76D"/>
<rect x="-64" y="67.4019" width="249.43" height="113.262" transform="rotate(-45 -64 67.4019)" fill="url(#paint0_linear_201_430)" fill-opacity="0.2"/>
<rect x="227" y="131.373" width="249.43" height="113.262" transform="rotate(-45 227 131.373)" fill="url(#paint1_linear_201_430)"/>
<rect x="-138" y="54.3733" width="249.43" height="113.262" transform="rotate(-45 -138 54.3733)" fill="url(#paint2_linear_201_430)"/>
<path fill-rule="evenodd" clip-rule="evenodd" d="M416.879 87.5798L407.989 109.826H378.408C373.512 114.83 366.809 117.623 359.805 117.623H322.479L318.244 111.253H309.735L308.611 112.318C305.481 115.272 301.347 116.92 297.052 116.92C292.497 116.92 288.122 115.071 284.951 111.775L284.449 111.253H259.485L250.273 94.754L416.879 87.5798Z" fill="#59E970"/>
<path fill-rule="evenodd" clip-rule="evenodd" d="M260.307 72.9702C258.641 72.9702 252.3 72.9702 250.634 72.9702C239.877 72.9702 231.148 85.0276 231.148 99.8984C231.148 114.789 239.877 126.847 250.634 126.847C252.3 126.847 258.641 126.847 260.307 126.847C271.063 126.847 279.773 114.789 279.773 99.8984C279.773 85.0276 271.063 72.9702 260.307 72.9702Z" fill="#4EDF66"/>
<path fill-rule="evenodd" clip-rule="evenodd" d="M345.958 72.9702C344.292 72.9702 337.95 72.9702 336.285 72.9702C325.528 72.9702 316.819 85.0276 316.819 99.8984C316.819 114.789 325.528 126.847 336.285 126.847C337.95 126.847 344.292 126.847 345.958 126.847C356.714 126.847 365.444 114.789 365.444 99.8984C365.444 85.0276 356.714 72.9702 345.958 72.9702Z" fill="#4EDF66"/>
<path fill-rule="evenodd" clip-rule="evenodd" d="M217 89.4488V96.8842C217 98.5522 218.345 99.8986 220.01 99.8986H453.985C455.651 99.8986 456.995 98.5522 456.995 96.8842V85.2689C456.995 84.2842 456.513 83.3598 455.691 82.7971L452.741 80.7675V66.2986C452.741 56.7732 446.68 48.4134 437.81 45.399C437.188 45.178 436.566 44.9971 435.924 44.8364L419.227 40.7569L410.598 24.5598C406.484 16.823 398.436 12 389.687 12H310.839C306.685 12 302.671 13.0048 299.099 14.8335C294.584 17.1445 290.751 20.7818 288.222 25.3837L277.646 44.6153L267.813 48.1522L240.921 57.8383C234.479 60.1493 229.482 65.3139 227.375 71.8249L222.659 86.4345H220.01C218.345 86.4345 217 87.7809 217 89.4488Z" fill="#5DEA73"/>
<path fill-rule="evenodd" clip-rule="evenodd" d="M356.474 14.8336L347.744 45.3188C347.744 45.3188 310.999 48.6346 297.815 48.6346C280.355 48.6346 277.646 44.6154 277.646 44.6154L288.222 25.3839C290.751 20.7819 294.584 17.1446 299.099 14.8336H356.474Z" fill="#91FFA2"/>
<path fill-rule="evenodd" clip-rule="evenodd" d="M351.276 45.0575L359.303 14.8336H384.067L389.024 42.9475L351.276 45.0575Z" fill="#91FFA2"/>
<path fill-rule="evenodd" clip-rule="evenodd" d="M306.202 86.4346V99.8987H220.01C218.344 99.8987 216.999 98.5523 216.999 96.8843V89.4489C216.999 87.781 218.344 86.4346 220.01 86.4346H306.202Z" fill="#6AEE7F"/>
<path fill-rule="evenodd" clip-rule="evenodd" d="M307.146 74.98C307.146 79.4815 303.815 83.1389 299.721 83.1389C295.607 83.1389 292.275 79.4815 292.275 74.98C292.275 70.4786 295.607 66.8212 299.721 66.8212C303.815 66.8212 307.146 70.4786 307.146 74.98Z" fill="#91FFA2"/>
<path fill-rule="evenodd" clip-rule="evenodd" d="M244.132 74.98C244.132 79.4815 240.801 83.1389 236.707 83.1389C232.593 83.1389 229.262 79.4815 229.262 74.98C229.262 70.4786 232.593 66.8212 236.707 66.8212C240.801 66.8212 244.132 70.4786 244.132 74.98Z" fill="#91FFA2"/>
<path fill-rule="evenodd" clip-rule="evenodd" d="M349.73 82.1743C341.121 82.1743 334.157 91.5389 334.157 103.094C334.157 114.649 341.121 124.014 349.73 124.014C358.319 124.014 365.283 114.649 365.283 103.094C365.283 91.5389 358.319 82.1743 349.73 82.1743Z" fill="#7EF790"/>
<path fill-rule="evenodd" clip-rule="evenodd" d="M351.076 92.8047C346.42 92.8047 342.667 97.8688 342.667 104.119C342.667 110.348 346.42 115.412 351.076 115.412C355.712 115.412 359.484 110.348 359.484 104.119C359.484 97.8688 355.712 92.8047 351.076 92.8047Z" fill="#91FFA2"/>
<path fill-rule="evenodd" clip-rule="evenodd" d="M288.162 77.4917C289.526 68.7099 265.143 68.8908 265.143 68.8908C265.143 68.8908 263.016 72.6085 262.494 82.174C262.494 82.174 287.058 84.6257 288.162 77.4917Z" fill="#7EF790"/>
<path fill-rule="evenodd" clip-rule="evenodd" d="M262.494 68.891C262.494 68.891 260.006 77.6728 260.548 82.5963C260.548 82.5963 245.978 83.8422 247.022 76.6881C248.085 69.5341 262.494 68.891 262.494 68.891Z" fill="#7EF790"/>
<path fill-rule="evenodd" clip-rule="evenodd" d="M319.89 86.4346H306.203V99.8987H319.89C321.876 99.8987 323.482 98.291 323.482 96.3016V90.0317C323.482 88.0422 321.876 86.4346 319.89 86.4346Z" fill="#7EF790"/>
<path fill-rule="evenodd" clip-rule="evenodd" d="M220.592 86.4346H224V99.8987H220.592C218.605 99.8987 217 98.291 217 96.3016V90.0317C217 88.0422 218.605 86.4346 220.592 86.4346Z" fill="#7EF790"/>
<path fill-rule="evenodd" clip-rule="evenodd" d="M347.624 45.9416C347.624 45.9416 317.521 50.2822 295.667 63.043H250.273C250.273 63.043 259.645 54.3014 276.642 45.9014C276.642 45.9014 282.302 55.9492 347.624 45.9416Z" fill="#7EF790"/>
<path fill-rule="evenodd" clip-rule="evenodd" d="M308.851 64.0077L311.862 68.0068V82.8977L323.481 82.6766L331.227 88.5647C335.723 73.4527 345.135 68.9513 356.473 70.8403C367.791 72.7293 369.216 88.5647 369.216 88.5647H416.417C416.417 88.5647 421.955 72.8699 432.21 71.6441C442.485 70.3982 445.676 80.7675 445.676 80.7675H452.74V66.2986C452.74 56.7733 446.679 48.4135 437.809 45.3991L419.126 41.7417L389.024 44.2336C389.024 44.2336 353.864 46.2632 349.71 47.2881C345.576 48.313 308.851 64.0077 308.851 64.0077Z" fill="#4EDF66"/>
<path fill-rule="evenodd" clip-rule="evenodd" d="M325.348 122.205C325.809 116.277 326.05 110.328 326.171 104.44C326.05 110.328 325.789 116.277 325.348 122.185V122.205Z" fill="#F9FAFA"/>
<path fill-rule="evenodd" clip-rule="evenodd" d="M313.789 111.253C313.708 108.238 313.608 105.043 313.467 101.747C313.608 105.043 313.708 108.238 313.789 111.253Z" fill="#F9FAFA"/>
<path fill-rule="evenodd" clip-rule="evenodd" d="M304.116 68.4086C304.437 65.2536 304.758 61.7971 305.079 58.2402C304.758 61.7971 304.437 65.2536 304.116 68.4086ZM305.741 50.2823C305.761 50.2823 305.741 50.2823 305.761 50.2823C305.801 49.6593 305.861 49.0163 305.902 48.3933C305.861 49.0163 305.801 49.6593 305.741 50.2823Z" fill="#F9FAFA"/>
<path fill-rule="evenodd" clip-rule="evenodd" d="M305.901 48.3933C305.961 47.6498 306.022 46.9063 306.082 46.1627C306.022 46.9063 305.961 47.6498 305.901 48.3933Z" fill="#FBFCFC"/>
<path fill-rule="evenodd" clip-rule="evenodd" d="M302.972 78.5568C303.333 75.8238 303.734 72.3271 304.115 68.4084C303.734 72.3271 303.333 75.8238 302.972 78.5568Z" fill="#FEFEFE"/>
<path fill-rule="evenodd" clip-rule="evenodd" d="M305.078 58.2402C305.3 55.6278 305.541 52.9551 305.762 50.2823C305.742 50.2823 305.762 50.2823 305.742 50.2823C305.541 52.9551 305.3 55.6278 305.078 58.2402Z" fill="#FBFCFC"/>
<path fill-rule="evenodd" clip-rule="evenodd" d="M350.875 81.7321C350.854 81.692 350.834 81.6518 350.814 81.6116L350.774 81.6518C350.774 81.6518 350.814 81.6719 350.875 81.7321Z" fill="#95938F"/>
<circle cx="196" cy="111" r="40" fill="url(#paint3_linear_201_430)"/>
</g>
<defs>
<linearGradient id="paint0_linear_201_430" x1="60.7148" y1="67.4019" x2="64.624" y2="119.797" gradientUnits="userSpaceOnUse">
<stop stop-color="white"/>
<stop offset="1" stop-color="white" stop-opacity="0"/>
</linearGradient>
<linearGradient id="paint1_linear_201_430" x1="353.483" y1="173.889" x2="404.748" y2="131.109" gradientUnits="userSpaceOnUse">
<stop stop-color="#3CD555"/>
<stop offset="1" stop-color="#3CD555" stop-opacity="0"/>
</linearGradient>
<linearGradient id="paint2_linear_201_430" x1="-49.7012" y1="163.357" x2="11.1099" y2="149.215" gradientUnits="userSpaceOnUse">
<stop stop-color="#52CD66"/>
<stop offset="1" stop-color="#7DEA8F" stop-opacity="0.43"/>
</linearGradient>
<linearGradient id="paint3_linear_201_430" x1="226.5" y1="48" x2="196" y2="151" gradientUnits="userSpaceOnUse">
<stop stop-color="#6FE782"/>
<stop offset="1" stop-color="#6FE782" stop-opacity="0"/>
</linearGradient>
</defs>
</svg>
