<svg preserveAspectRatio="none" width="364" height="111" viewBox="0 0 364 111" fill="none" xmlns="http://www.w3.org/2000/svg">
<mask id="mask0_201_395" style="mask-type:alpha" maskUnits="userSpaceOnUse" x="0" y="0" width="364" height="111">
<rect width="364" height="111" rx="16" fill="#51CC65"/>
</mask>
<g mask="url(#mask0_201_395)">
<rect width="364" height="111" rx="16" fill="#51CC65"/>
<rect x="-64" y="67.4019" width="249.43" height="113.262" transform="rotate(-45 -64 67.4019)" fill="#58D76D"/>
<rect x="-64" y="67.4019" width="249.43" height="113.262" transform="rotate(-45 -64 67.4019)" fill="url(#paint0_linear_201_395)" fill-opacity="0.2"/>
<rect x="227" y="131.373" width="249.43" height="113.262" transform="rotate(-45 227 131.373)" fill="url(#paint1_linear_201_395)"/>
<rect x="-138" y="54.3733" width="249.43" height="113.262" transform="rotate(-45 -138 54.3733)" fill="url(#paint2_linear_201_395)"/>
<path fill-rule="evenodd" clip-rule="evenodd" d="M354.882 108.691L351.623 116.189C350.353 119.079 347.491 120.949 344.327 120.949H330.644C328.825 120.949 327.082 120.231 325.812 118.947H300.248C298.239 118.947 296.363 117.983 295.188 116.359L291.815 111.694L354.882 108.691Z" fill="#91FFA2"/>
<path fill-rule="evenodd" clip-rule="evenodd" d="M334.074 78.9988C334.074 82.5875 319.71 108.105 318.27 109.106C316.829 110.126 298.087 108.993 298.087 108.993L299.49 114.281H350.978L372.354 72.8981L358.217 52.556L332.445 53.2738C332.445 53.2738 334.074 75.4102 334.074 78.9988Z" fill="#5CE771"/>
<path fill-rule="evenodd" clip-rule="evenodd" d="M321.567 113.62H334.302C343.606 110.957 350.808 84.9864 350.808 78.2057C350.808 73.5782 347.757 64.701 345.596 58.978H342.583C343.341 61.4334 347.188 72.4072 347.188 74.0693C347.188 75.3915 346.354 76.6569 344.971 77.1102L333.62 80.7933C331.194 87.6685 319.558 108.199 318.27 109.106C317.872 109.389 316.185 109.503 313.93 109.522C315.692 111.996 318.516 113.62 321.567 113.62Z" fill="#4EDF66"/>
<path fill-rule="evenodd" clip-rule="evenodd" d="M375.879 83.4941C387.477 83.4941 396.876 94.789 396.876 108.747C396.876 122.686 387.477 134 375.879 134C364.281 134 354.882 122.686 354.882 108.747C354.882 94.789 364.281 83.4941 375.879 83.4941Z" fill="#91FFA2"/>
<path fill-rule="evenodd" clip-rule="evenodd" d="M292.611 114.942H294.165H307.184C304.398 114.942 302.086 112.751 301.859 109.975C300.134 89.595 283.685 76.7325 276.73 72.1239C274.892 70.8962 272.713 70.3107 270.477 70.3107H259.353L258.898 70.6129C258.898 70.6129 262.1 73.0494 266.345 77.9791C266.364 77.9791 266.383 77.9791 266.402 77.9791L266.44 77.8846L266.402 77.7713L266.478 77.7902L268.316 73.6349H270.401C272.087 73.6349 273.717 74.1827 275.063 75.2026L278.72 77.9224L277.014 83.8721C277.659 84.5709 278.114 85.1564 278.398 85.5531C281.828 89.8028 283.893 94.9214 284.5 98.68C284.519 98.7556 284.519 98.8311 284.519 98.9067C284.519 99.6622 283.893 100.285 283.117 100.285H282.017C281.43 100.285 280.918 99.9455 280.71 99.3978C280.179 98.0567 278.985 95.4313 276.787 93.2026C277.716 94.9025 278.606 96.6968 279.459 98.6045C280.861 101.683 282.188 105.045 283.325 108.653C284.841 112.411 288.498 114.942 292.611 114.942Z" fill="#4EDF66"/>
<path fill-rule="evenodd" clip-rule="evenodd" d="M258.765 70.3107H270.477C272.713 70.3107 274.892 70.8962 276.73 72.1239C283.685 76.7325 300.134 89.5951 301.859 109.975C302.086 112.751 304.398 114.942 307.184 114.942H358.085C366.631 114.942 375.026 112.695 382.417 108.407L396.952 99.9455C400.174 98.0757 401.86 94.3737 401.083 90.7472C399.359 82.4177 394.469 68.1386 380.503 62.5478C380.295 62.4534 380.636 62.3779 379.953 62.2834V53.6517H343.474C343.474 53.6517 350.808 71.0284 350.808 78.2058C350.808 84.9865 343.606 110.957 334.302 113.62H321.567C318.156 113.62 315.029 111.58 313.362 108.615C307.165 97.6035 293.407 69.0452 297.708 42.0547C298.201 38.9004 295.776 35.6517 292.554 35.6517H276.181C276.181 35.6517 261.437 52.6507 256.7 67.0242C256.245 68.4219 257.287 70.3107 258.765 70.3107Z" fill="#5DEA73"/>
<path fill-rule="evenodd" clip-rule="evenodd" d="M285.05 30.2498H289.711C290.943 30.2498 292.137 29.8342 293.085 29.0598L302.711 21.297C303.09 20.9948 303.564 20.8248 304.057 20.8248H322.534C323.273 20.8248 323.86 20.2204 323.86 19.4838C323.86 18.7471 323.273 18.1616 322.534 18.1616H304.057C302.958 18.1616 301.878 18.5394 301.025 19.2193L291.398 26.9822C290.924 27.3788 290.318 27.5866 289.711 27.5866H285.05C283.704 27.5866 282.567 26.5855 282.378 25.2823L281.942 22.2791C281.62 19.9371 279.573 18.1616 277.185 18.1616H273.66C272.921 18.1616 272.334 18.7471 272.334 19.4838C272.334 20.2204 272.921 20.8248 273.66 20.8248H277.185C278.246 20.8248 279.156 21.6181 279.308 22.6569L279.725 25.6412C280.104 28.2666 282.378 30.2498 285.05 30.2498Z" fill="#5DEA73"/>
<path fill-rule="evenodd" clip-rule="evenodd" d="M284.633 37.1628H294.638L296.742 33.8196C297.102 33.253 297.292 32.5919 297.292 31.9309C297.292 31.5909 297.235 31.2698 297.159 30.9487L296.173 27.5489C296.098 27.5489 296.003 27.5489 295.927 27.5489C293.331 27.5489 293.274 24.8102 293.274 24.6024H282.226C281.335 24.6024 280.501 24.9424 279.895 25.5657L274.115 31.4587C273.66 31.9309 273.433 32.5353 273.414 33.1586C273.414 33.3852 273.452 33.6307 273.528 33.8574C273.566 34.0085 273.622 34.1596 273.717 34.3107L274.399 35.5951C274.854 35.5573 275.309 35.5384 275.764 35.5384C279.478 35.5384 282.738 36.4828 284.633 37.1628Z" fill="#91FFA2"/>
<path fill-rule="evenodd" clip-rule="evenodd" d="M259.978 83.4941C271.576 83.4941 280.975 94.789 280.975 108.747C280.975 122.686 271.576 134 259.978 134C248.4 134 239 122.686 239 108.747C239 94.789 248.4 83.4941 259.978 83.4941Z" fill="#6CEB7F"/>
<path fill-rule="evenodd" clip-rule="evenodd" d="M263.503 92.8247C270.818 92.8247 276.749 99.9454 276.749 108.747C276.749 117.53 270.818 124.669 263.503 124.669C256.188 124.669 250.257 117.53 250.257 108.747C250.257 99.9454 256.188 92.8247 263.503 92.8247Z" fill="#C3FFCC"/>
<path fill-rule="evenodd" clip-rule="evenodd" d="M271.311 105.196L276.162 92.598C278.758 94.9401 280.141 97.9244 280.71 99.3976C280.918 99.9454 281.43 100.285 282.018 100.285H283.117C283.894 100.285 284.519 99.662 284.519 98.9065C284.519 98.831 284.519 98.7554 284.5 98.6799C283.894 94.9212 281.828 89.8027 278.398 85.5529C278.114 85.1563 277.659 84.5708 277.015 83.8719L278.72 77.9223L275.063 75.2024C273.717 74.1825 272.088 73.6348 270.401 73.6348H268.316L266.478 77.7901L266.402 77.7712L266.44 77.8845L266.402 77.9789C265.303 77.7901 264.147 77.6767 262.916 77.6767C261.418 77.6767 259.808 77.8467 258.083 78.2245C247.452 80.6043 241.539 88.7072 239.322 92.4658C239.209 92.6547 239.152 92.8625 239.152 93.0702C239.152 93.7124 239.663 94.2979 240.383 94.2979H242.771H244.666C246.069 94.2979 247.357 93.6557 248.248 92.5791C252.588 87.215 258.292 86.1195 262.252 86.1195C265 86.1195 266.895 86.6484 266.895 86.6484L265.55 102.004C265.872 101.929 266.213 101.891 266.535 101.891C268.582 101.891 270.344 103.213 271.311 105.196Z" fill="#91FFA2"/>
<path fill-rule="evenodd" clip-rule="evenodd" d="M266.535 115.169C269.586 115.169 272.05 112.204 272.05 108.539C272.05 104.875 269.586 101.891 266.535 101.891C263.503 101.891 261.02 104.875 261.02 108.539C261.02 112.204 263.503 115.169 266.535 115.169Z" fill="#7EF790"/>
<path fill-rule="evenodd" clip-rule="evenodd" d="M271.367 59.8278C271.405 59.8278 271.443 59.8278 271.481 59.8278C282.927 59.6767 286.395 37.8992 286.395 37.8992C286.395 37.8992 281.676 35.5382 275.764 35.5382C273.926 35.5382 271.955 35.7837 269.984 36.3882C265.152 37.8614 262.821 43.1688 262.821 48.363C262.84 54.1615 265.758 59.8278 271.367 59.8278Z" fill="#6BEE7F"/>
<path fill-rule="evenodd" clip-rule="evenodd" d="M263.541 47.9097C263.295 53.4438 266.63 57.9202 271.007 57.9202C275.385 57.9202 279.137 53.4438 279.402 47.9097C279.649 42.3756 276.314 37.8992 271.936 37.8992C267.558 37.8992 263.806 42.3756 263.541 47.9097Z" fill="#75FA8A"/>
<path fill-rule="evenodd" clip-rule="evenodd" d="M274.437 33.6307H284.405L283.609 32.3463H274.437V33.6307Z" fill="#C3FFCC"/>
<path fill-rule="evenodd" clip-rule="evenodd" d="M329.147 52.726V55.238C329.147 57.5046 331.023 58.9778 333.297 58.9778H378.513C380.806 58.9778 382.625 57.5046 382.625 55.238V52.726C382.625 50.4594 380.806 48.9862 378.513 48.9862H333.297C331.023 48.9862 329.147 50.4594 329.147 52.726Z" fill="#91FFA2"/>
<path fill-rule="evenodd" clip-rule="evenodd" d="M347.7 58.9778H378.513C380.806 58.9778 382.625 57.5046 382.625 55.238V52.726C382.625 50.4594 380.806 48.9862 378.513 48.9862H347.7C345.407 48.9862 343.853 50.4594 343.853 52.726V55.238C343.853 57.5046 345.407 58.9778 347.7 58.9778Z" fill="#70EB83"/>
<path fill-rule="evenodd" clip-rule="evenodd" d="M349.538 114.942H358.085C364.717 114.942 371.255 113.582 377.3 110.976C379.044 110.22 380.749 109.37 382.417 108.407L387.363 105.536L395.891 100.569L396.952 99.9454C397.71 99.511 398.373 98.9821 398.923 98.3777C400.42 96.7912 401.273 94.6946 401.273 92.5037C401.273 91.9181 401.216 91.3326 401.083 90.7471C399.359 82.4176 394.375 68.1385 380.408 62.5477L379.764 62.5855H374.117C367.465 62.5855 361.42 66.4386 358.596 72.4449L352.57 85.3074C350.58 89.5572 349.538 94.1847 349.538 98.8688V114.942Z" fill="#7EF790"/>
<path fill-rule="evenodd" clip-rule="evenodd" d="M305.611 19.4083L312.85 9.96439L311.789 9.15222L304.55 18.5961L305.611 19.4083Z" fill="#7EF790"/>
<path fill-rule="evenodd" clip-rule="evenodd" d="M316.147 8H312.736C312.016 8 311.353 8.43442 311.069 9.09549L310.614 10.1532C310.102 11.3431 310.974 12.6653 312.281 12.6653H315.996C316.886 12.6653 317.663 12.0042 317.777 11.1165L317.929 10.0588C318.099 8.98216 317.246 8 316.147 8Z" fill="#49ED62"/>
<path fill-rule="evenodd" clip-rule="evenodd" d="M278.246 19.3515L279.554 19.0871L277.773 10.6443L276.465 10.9276L278.246 19.3515Z" fill="#7EF790"/>
<path fill-rule="evenodd" clip-rule="evenodd" d="M273.111 8H276.787C277.526 8 278.152 8.54774 278.265 9.28437L278.512 10.9654C278.625 11.872 277.943 12.6653 277.034 12.6653H273.357C272.618 12.6653 271.993 12.1175 271.879 11.3998L271.633 9.69989C271.519 8.81217 272.201 8 273.111 8Z" fill="#49ED62"/>
<circle cx="196" cy="111" r="40" fill="url(#paint3_linear_201_395)"/>
</g>
<defs>
<linearGradient id="paint0_linear_201_395" x1="60.7148" y1="67.4019" x2="64.624" y2="119.797" gradientUnits="userSpaceOnUse">
<stop stop-color="white"/>
<stop offset="1" stop-color="white" stop-opacity="0"/>
</linearGradient>
<linearGradient id="paint1_linear_201_395" x1="353.483" y1="173.889" x2="404.748" y2="131.109" gradientUnits="userSpaceOnUse">
<stop stop-color="#3CD555"/>
<stop offset="1" stop-color="#3CD555" stop-opacity="0"/>
</linearGradient>
<linearGradient id="paint2_linear_201_395" x1="-49.7012" y1="163.357" x2="11.1099" y2="149.215" gradientUnits="userSpaceOnUse">
<stop stop-color="#52CD66"/>
<stop offset="1" stop-color="#7DEA8F" stop-opacity="0.43"/>
</linearGradient>
<linearGradient id="paint3_linear_201_395" x1="226.5" y1="48" x2="196" y2="151" gradientUnits="userSpaceOnUse">
<stop stop-color="#6FE782"/>
<stop offset="1" stop-color="#6FE782" stop-opacity="0"/>
</linearGradient>
</defs>
</svg>
