<svg width="396" height="101" viewBox="0 0 396 101" fill="none" xmlns="http://www.w3.org/2000/svg">
<mask id="mask0_192_769" style="mask-type:alpha" maskUnits="userSpaceOnUse" x="0" y="0" width="396" height="101">
<rect y="0.528564" width="396" height="100" rx="8" fill="#19C065"/>
</mask>
<g mask="url(#mask0_192_769)">
<rect y="0.528564" width="396" height="100" rx="8" fill="#15D26B"/>
<circle cx="380" cy="23.5286" r="130" fill="white"/>
<circle cx="207" cy="180.029" r="130" fill="url(#paint0_linear_192_769)"/>
<path fill-rule="evenodd" clip-rule="evenodd" d="M51.5418 43.289C48.7408 46.3992 48.5702 52.3412 48.5702 52.3412C45.5379 125.151 -11.4999 113.289 -11.4999 113.289C-11.4999 113.289 -29.247 57.7998 42.8489 47.1887C42.8489 47.1887 48.7408 46.3992 51.5418 43.289Z" fill="#10C964"/>
<path fill-rule="evenodd" clip-rule="evenodd" d="M367.542 9.28899C364.741 12.3992 364.57 18.3412 364.57 18.3412C361.538 91.1507 304.5 79.289 304.5 79.289C304.5 79.289 286.753 23.7998 358.849 13.1887C358.849 13.1887 364.741 12.3992 367.542 9.28899Z" fill="url(#paint1_linear_192_769)"/>
<g filter="url(#filter0_f_192_769)">
<path fill-rule="evenodd" clip-rule="evenodd" d="M367.542 9.28899C364.741 12.3992 364.57 18.3412 364.57 18.3412C361.538 91.1507 304.5 79.289 304.5 79.289C304.5 79.289 286.753 23.7998 358.849 13.1887C358.849 13.1887 364.741 12.3992 367.542 9.28899Z" fill="#83FFBB"/>
</g>
<path fill-rule="evenodd" clip-rule="evenodd" d="M367.542 9.28899C364.741 12.3992 364.57 18.3412 364.57 18.3412C361.538 91.1507 304.5 79.289 304.5 79.289C304.5 79.289 286.753 23.7998 358.849 13.1887C358.849 13.1887 364.741 12.3992 367.542 9.28899Z" fill="url(#paint2_linear_192_769)"/>
<path fill-rule="evenodd" clip-rule="evenodd" d="M51.5418 -28.711C48.7408 -25.6008 48.5702 -19.6588 48.5702 -19.6588C45.5379 53.1507 -11.4999 41.289 -11.4999 41.289C-11.4999 41.289 -29.247 -14.2002 42.8489 -24.8113C42.8489 -24.8113 48.7408 -25.6008 51.5418 -28.711Z" fill="#16D76E"/>
<path d="M27.008 45.3286V49.7446H21.92V45.3286H19.328V56.5286H21.92V51.9366H27.008V56.5286H29.6V45.3286H27.008ZM36.4899 56.6566C39.2259 56.6566 41.2099 54.8166 41.2099 52.2246C41.2099 49.6326 39.2259 47.7926 36.4899 47.7926C33.7539 47.7926 31.7539 49.6326 31.7539 52.2246C31.7539 54.8166 33.7539 56.6566 36.4899 56.6566ZM36.4899 54.6086C35.2419 54.6086 34.2819 53.7126 34.2819 52.2246C34.2819 50.7366 35.2419 49.8406 36.4899 49.8406C37.7379 49.8406 38.6819 50.7366 38.6819 52.2246C38.6819 53.7126 37.7379 54.6086 36.4899 54.6086ZM54.5799 47.9206L52.4839 53.7446L50.4359 47.9206H48.3239L46.2119 53.7446L44.1799 47.9206H41.8279L44.9319 56.5286H47.3319L49.3319 51.1846L51.2679 56.5286H53.6679L56.7879 47.9206H54.5799ZM70.8635 54.0326C70.2075 54.3846 69.5515 54.5126 68.8475 54.5126C66.7035 54.5126 65.2155 53.0246 65.2155 50.9286C65.2155 48.8006 66.7035 47.3446 68.8795 47.3446C70.0155 47.3446 70.9595 47.7446 71.7755 48.6086L73.4395 47.0726C72.3515 45.8086 70.7195 45.1366 68.7515 45.1366C65.1835 45.1366 62.5915 47.5526 62.5915 50.9286C62.5915 54.3046 65.1835 56.7206 68.7035 56.7206C70.3035 56.7206 71.9995 56.2246 73.2315 55.2966V50.7526H70.8635V54.0326ZM78.1672 49.0566V47.9206H75.7832V56.5286H78.2792V52.4646C78.2792 50.8166 79.1912 50.0646 80.5672 50.0646C80.7592 50.0646 80.9192 50.0806 81.1272 50.0966V47.7926C79.7992 47.7926 78.7752 48.2246 78.1672 49.0566ZM91.2852 52.2566C91.2852 49.4886 89.3332 47.7926 86.8052 47.7926C84.1812 47.7926 82.2132 49.6486 82.2132 52.2246C82.2132 54.7846 84.1492 56.6566 87.1252 56.6566C88.6772 56.6566 89.8772 56.1766 90.6772 55.2646L89.3492 53.8246C88.7572 54.3846 88.1012 54.6566 87.1892 54.6566C85.8772 54.6566 84.9652 54.0006 84.7252 52.9286H91.2372C91.2532 52.7206 91.2852 52.4486 91.2852 52.2566ZM86.8212 49.6806C87.9412 49.6806 88.7572 50.3846 88.9332 51.4726H84.6932C84.8692 50.3686 85.6852 49.6806 86.8212 49.6806ZM101.699 52.2566C101.699 49.4886 99.747 47.7926 97.219 47.7926C94.595 47.7926 92.627 49.6486 92.627 52.2246C92.627 54.7846 94.563 56.6566 97.539 56.6566C99.091 56.6566 100.291 56.1766 101.091 55.2646L99.763 53.8246C99.171 54.3846 98.515 54.6566 97.603 54.6566C96.291 54.6566 95.379 54.0006 95.139 52.9286H101.651C101.667 52.7206 101.699 52.4486 101.699 52.2566ZM97.235 49.6806C98.355 49.6806 99.171 50.3846 99.347 51.4726H95.107C95.283 50.3686 96.099 49.6806 97.235 49.6806ZM108.913 47.7926C107.745 47.7926 106.737 48.1926 106.065 48.9286V47.9206H103.681V56.5286H106.177V52.2726C106.177 50.6886 107.041 49.9526 108.241 49.9526C109.345 49.9526 109.985 50.5926 109.985 51.9846V56.5286H112.481V51.6006C112.481 48.9766 110.945 47.7926 108.913 47.7926ZM127.863 56.5286L127.831 45.3286H125.703L121.575 52.2886L117.383 45.3286H115.239V56.5286H117.671V49.9526L120.951 55.3446H122.119L125.415 49.8086L125.431 56.5286H127.863ZM131.912 46.7206C132.84 46.7206 133.464 46.1126 133.464 45.2806C133.464 44.5126 132.84 43.9366 131.912 43.9366C130.984 43.9366 130.36 44.5446 130.36 45.3286C130.36 46.1126 130.984 46.7206 131.912 46.7206ZM130.664 56.5286H133.16V47.9206H130.664V56.5286ZM135.797 56.5286H138.293V44.6566H135.797V56.5286ZM149.361 52.2566C149.361 49.4886 147.409 47.7926 144.881 47.7926C142.257 47.7926 140.289 49.6486 140.289 52.2246C140.289 54.7846 142.225 56.6566 145.201 56.6566C146.753 56.6566 147.953 56.1766 148.753 55.2646L147.425 53.8246C146.833 54.3846 146.177 54.6566 145.265 54.6566C143.953 54.6566 143.041 54.0006 142.801 52.9286H149.313C149.329 52.7206 149.361 52.4486 149.361 52.2566ZM144.897 49.6806C146.017 49.6806 146.833 50.3846 147.009 51.4726H142.769C142.945 50.3686 143.761 49.6806 144.897 49.6806ZM154.239 56.6566C156.815 56.6566 158.303 55.5206 158.303 53.9206C158.303 50.5286 153.103 51.9526 153.103 50.4806C153.103 50.0326 153.583 49.6806 154.703 49.6806C155.487 49.6806 156.335 49.8406 157.183 50.3206L158.015 48.5446C157.199 48.0646 155.887 47.7926 154.703 47.7926C152.191 47.7926 150.719 48.9446 150.719 50.5766C150.719 54.0166 155.919 52.5766 155.919 53.9846C155.919 54.4646 155.487 54.7686 154.335 54.7686C153.279 54.7686 152.111 54.4326 151.343 53.9366L150.511 55.7286C151.311 56.2566 152.783 56.6566 154.239 56.6566ZM179.639 45.3286L177.031 53.2646L174.471 45.3286H172.071L169.431 53.2006L166.903 45.3286H164.215L167.895 56.5286H170.663L173.207 48.9446L175.671 56.5286H178.455L182.119 45.3286H179.639ZM187.165 56.6566C189.901 56.6566 191.885 54.8166 191.885 52.2246C191.885 49.6326 189.901 47.7926 187.165 47.7926C184.429 47.7926 182.429 49.6326 182.429 52.2246C182.429 54.8166 184.429 56.6566 187.165 56.6566ZM187.165 54.6086C185.917 54.6086 184.957 53.7126 184.957 52.2246C184.957 50.7366 185.917 49.8406 187.165 49.8406C188.413 49.8406 189.357 50.7366 189.357 52.2246C189.357 53.7126 188.413 54.6086 187.165 54.6086ZM196.257 49.0566V47.9206H193.873V56.5286H196.369V52.4646C196.369 50.8166 197.281 50.0646 198.657 50.0646C198.849 50.0646 199.009 50.0806 199.217 50.0966V47.7926C197.889 47.7926 196.865 48.2246 196.257 49.0566ZM207.437 56.5286H210.461L206.557 51.5686L210.141 47.9206H207.165L203.517 51.3766V44.6566H201.021V56.5286H203.517V54.3366L204.717 53.1526L207.437 56.5286ZM214.519 56.6566C217.095 56.6566 218.583 55.5206 218.583 53.9206C218.583 50.5286 213.383 51.9526 213.383 50.4806C213.383 50.0326 213.863 49.6806 214.983 49.6806C215.767 49.6806 216.615 49.8406 217.463 50.3206L218.295 48.5446C217.479 48.0646 216.167 47.7926 214.983 47.7926C212.471 47.7926 210.999 48.9446 210.999 50.5766C210.999 54.0166 216.199 52.5766 216.199 53.9846C216.199 54.4646 215.767 54.7686 214.615 54.7686C213.559 54.7686 212.391 54.4326 211.623 53.9366L210.791 55.7286C211.591 56.2566 213.063 56.6566 214.519 56.6566ZM222.544 52.6406H224.96C224.96 50.9446 227.648 50.6566 227.648 48.0966C227.648 46.2086 225.984 45.1366 223.584 45.1366C221.424 45.1366 219.92 45.9686 219.056 47.2806L220.992 48.4166C221.504 47.6806 222.288 47.2326 223.312 47.2326C224.352 47.2326 225.04 47.7286 225.04 48.5126C225.04 49.9046 222.544 50.4006 222.544 52.6406ZM223.76 56.6566C224.656 56.6566 225.296 56.0006 225.296 55.2006C225.296 54.3846 224.656 53.7766 223.76 53.7766C222.864 53.7766 222.224 54.3846 222.224 55.2006C222.224 56.0006 222.864 56.6566 223.76 56.6566Z" fill="white"/>
</g>
<defs>
<filter id="filter0_f_192_769" x="295.569" y="2.28906" width="78.9732" height="84.7163" filterUnits="userSpaceOnUse" color-interpolation-filters="sRGB">
<feFlood flood-opacity="0" result="BackgroundImageFix"/>
<feBlend mode="normal" in="SourceGraphic" in2="BackgroundImageFix" result="shape"/>
<feGaussianBlur stdDeviation="3.5" result="effect1_foregroundBlur_192_769"/>
</filter>
<linearGradient id="paint0_linear_192_769" x1="257.5" y1="44.5286" x2="207" y2="310.029" gradientUnits="userSpaceOnUse">
<stop stop-color="#3AEF8C" stop-opacity="0.63"/>
<stop offset="1" stop-color="#15D26B" stop-opacity="0"/>
</linearGradient>
<linearGradient id="paint1_linear_192_769" x1="367.542" y1="9.28899" x2="304.5" y2="79.289" gradientUnits="userSpaceOnUse">
<stop stop-color="#37EF8B"/>
<stop offset="1" stop-color="#10C964"/>
</linearGradient>
<linearGradient id="paint2_linear_192_769" x1="367.542" y1="9.28899" x2="304.5" y2="79.289" gradientUnits="userSpaceOnUse">
<stop stop-color="#37EF8B"/>
<stop offset="1" stop-color="#10C964"/>
</linearGradient>
</defs>
</svg>
