<svg width="20" height="26" viewBox="0 0 20 26" fill="none" xmlns="http://www.w3.org/2000/svg">
<path d="M12.25 1H3.25C2.65326 1 2.08097 1.25286 1.65901 1.70294C1.23705 2.15303 1 2.76348 1 3.4V22.6C1 23.2365 1.23705 23.847 1.65901 24.2971C2.08097 24.7471 2.65326 25 3.25 25H16.75C17.3467 25 17.919 24.7471 18.341 24.2971C18.7629 23.847 19 23.2365 19 22.6V8.2L12.25 1Z" stroke="white" stroke-width="2" stroke-linecap="round" stroke-linejoin="round"/>
<path d="M12.25 1V8.2H19" stroke="white" stroke-width="2" stroke-linecap="round" stroke-linejoin="round"/>
<path d="M14.5 14.2001H5.5" stroke="white" stroke-width="2" stroke-linecap="round" stroke-linejoin="round"/>
<path d="M14.5 19H5.5" stroke="white" stroke-width="2" stroke-linecap="round" stroke-linejoin="round"/>
<path d="M7.75 9.3999H6.625H5.5" stroke="white" stroke-width="2" stroke-linecap="round" stroke-linejoin="round"/>
</svg>
