<svg width="22" height="18" viewBox="0 0 22 18" fill="none" xmlns="http://www.w3.org/2000/svg">
<path fill-rule="evenodd" clip-rule="evenodd" d="M5.44444 0C2.57563 0 0.25 2.32563 0.25 5.19444C0.25 6.02618 0.72698 6.78421 1.47681 7.14413L1.96417 7.37806C3.1152 7.93055 3.1152 9.56945 1.96417 10.1219L1.47681 10.3559C0.726981 10.7158 0.25 11.4738 0.25 12.3056C0.25 15.1744 2.57563 17.5 5.44444 17.5H16.5556C19.4244 17.5 21.75 15.1744 21.75 12.3056C21.75 11.4738 21.273 10.7158 20.5232 10.3559L20.0358 10.1219C18.8848 9.56945 18.8848 7.93056 20.0358 7.37806L20.5232 7.14413C21.273 6.78421 21.75 6.02618 21.75 5.19444C21.75 2.32563 19.4244 0 16.5556 0H5.44444ZM1.75 5.19444C1.75 3.15406 3.40406 1.5 5.44444 1.5H16.5556C18.5959 1.5 20.25 3.15406 20.25 5.19444C20.25 5.44929 20.1038 5.68156 19.8741 5.79184L19.3867 6.02578C17.1012 7.12285 17.1012 10.3772 19.3867 11.4742L19.8741 11.7082C20.1038 11.8184 20.25 12.0507 20.25 12.3056C20.25 14.3459 18.5959 16 16.5556 16H5.44444C3.40406 16 1.75 14.3459 1.75 12.3056C1.75 12.0507 1.89615 11.8184 2.1259 11.7082L2.61327 11.4742C4.89884 10.3772 4.89883 7.12285 2.61327 6.02578L2.1259 5.79184C1.89615 5.68156 1.75 5.44929 1.75 5.19444Z" fill="#0BC05D"/>
<path fill-rule="evenodd" clip-rule="evenodd" d="M12.6979 6.26233C12.1685 4.57922 9.83148 4.57922 9.30207 6.26233C9.258 6.40245 9.14175 6.47474 9.03503 6.47474C7.25955 6.47474 6.63517 8.74751 7.97762 9.75504C8.07911 9.83121 8.13287 9.97947 8.08765 10.1232C7.82931 10.9446 8.16176 11.7161 8.72817 12.1412C9.2981 12.5689 10.141 12.668 10.843 12.1412C10.9383 12.0697 11.0617 12.0697 11.157 12.1412C11.859 12.668 12.7019 12.5689 13.2718 12.1412C13.8382 11.7161 14.1707 10.9446 13.9123 10.1232C13.8671 9.97947 13.9209 9.83121 14.0224 9.75504C15.3648 8.74751 14.7405 6.47474 12.965 6.47474C12.8583 6.47474 12.742 6.40245 12.6979 6.26233ZM10.733 6.71241C10.822 6.4292 11.178 6.4292 11.267 6.71241C11.4996 7.45164 12.1766 7.97473 12.965 7.97473C13.0418 7.97473 13.091 7.99753 13.1277 8.02685C13.1695 8.06027 13.2093 8.11487 13.232 8.18714C13.2779 8.33309 13.2384 8.46797 13.122 8.55533C12.4993 9.02264 12.2501 9.83771 12.4815 10.5733C12.5324 10.7351 12.4748 10.8639 12.3714 10.9415C12.3185 10.9812 12.2633 10.9985 12.2174 10.9999C12.1777 11.0011 12.1245 10.9919 12.0574 10.9415C11.4286 10.4696 10.5714 10.4696 9.94259 10.9415C9.87547 10.9919 9.82233 11.0011 9.78265 10.9999C9.73665 10.9985 9.68146 10.9812 9.62857 10.9415C9.52523 10.8639 9.46764 10.7351 9.51854 10.5733C9.74991 9.83771 9.50067 9.02264 8.87801 8.55534C8.76161 8.46797 8.72207 8.33309 8.76798 8.18714C8.79072 8.11487 8.83046 8.06027 8.87229 8.02685C8.90898 7.99753 8.9582 7.97473 9.03503 7.97473C9.82339 7.97473 10.5004 7.45164 10.733 6.71241Z" fill="#0BC05D"/>
</svg>
