<svg width="12" height="11" viewBox="0 0 12 11" fill="none" xmlns="http://www.w3.org/2000/svg">
<path d="M5.04894 0.872499C5.3483 -0.0488119 6.6517 -0.0488102 6.95106 0.8725L7.5716 2.78233C7.70547 3.19435 8.08943 3.47331 8.52265 3.47331H10.5308C11.4995 3.47331 11.9023 4.71293 11.1186 5.28233L9.49395 6.46267C9.14347 6.71732 8.99681 7.16868 9.13068 7.5807L9.75122 9.49053C10.0506 10.4118 8.9961 11.178 8.21238 10.6086L6.58778 9.42823C6.2373 9.17358 5.7627 9.17358 5.41221 9.42823L3.78761 10.6086C3.0039 11.178 1.94942 10.4118 2.24878 9.49053L2.86932 7.58071C3.00319 7.16868 2.85653 6.71731 2.50604 6.46267L0.881445 5.28233C0.0977311 4.71293 0.500508 3.47331 1.46923 3.47331H3.47735C3.91057 3.47331 4.29453 3.19435 4.4284 2.78233L5.04894 0.872499Z" fill="#FFEA32"/>
</svg>
